<?xml version="1.0" encoding="UTF-8" standalone="no"?>
<!-- Created with Inkscape (http://www.inkscape.org/) -->
<svg xmlns:svg="http://www.w3.org/2000/svg" xmlns="http://www.w3.org/2000/svg" xmlns:dc="http://purl.org/dc/elements/1.1/" xmlns:cc="http://web.resource.org/cc/" xmlns:rdf="http://www.w3.org/1999/02/22-rdf-syntax-ns#" version="1.0" width="383.09201" height="321.37399" viewBox="0 0 383.092 321.374" id="Layer_1" xml:space="preserve"><defs id="defs128"/>




<g id="g5">
	<path d="M 48.572,46.538 C 49.428,42.074 50.315,38.405 51.354,35.409 C 52.363,32.29 53.953,29.66 54.595,28.468 C 55.116,27.306 55.116,27.306 54.595,28.468 L 54.595,28.468 C 58.081,27.276 61.597,26.542 65.266,26.145 C 68.935,25.747 72.513,25.747 76.365,26.145 L 76.365,26.145 L 80.982,41.892 L 80.982,41.892 C 70.188,43.42 59.396,44.979 48.572,46.538 L 48.572,46.538 z " style="fill:#c16562;fill-rule:evenodd" id="path7"/>
	<path d="M 17.567,298.118 C 48.541,299.739 80.554,300.778 115.258,301.359 C 150.023,301.879 192.524,301.206 224.017,301.359 C 255.236,301.359 278.564,302.735 301.803,301.818 C 324.917,300.901 344.7,298.852 361.976,295.794 L 361.976,295.794 C 365.095,289.495 367.449,280.018 368.917,266.655 C 370.354,253.172 370.383,233.358 370.781,216.175 C 371.147,198.96 371.85,177.832 371.24,164.348 C 370.506,150.772 369.008,141.477 366.622,135.637 L 366.622,135.637 C 334.243,134.781 309.599,134.322 291.161,134.261 C 272.815,134.169 261.748,134.475 257.375,135.178 L 257.375,135.178 C 247.468,118.575 237.316,102.645 226.339,86.562 C 215.362,70.387 204.143,55.038 192.094,39.353 L 192.094,39.353 C 188.09,43.817 182.8,51.217 175.89,61.918 C 168.949,72.681 158.523,89.711 150.879,103.104 C 143.143,116.283 136.324,128.635 130.056,140.621 L 130.056,140.621 C 107.827,140.529 87.617,140.682 68.476,141.079 C 49.335,141.446 32.183,142.058 16.191,142.913 L 16.191,142.913 C 13.959,158.782 12.644,175.599 12.002,194.311 C 11.33,212.994 11.574,236.475 12.491,254.026 C 13.439,271.426 15.091,285.888 17.567,298.118 L 17.567,298.118 z " style="fill:#c16562;fill-rule:evenodd" id="path9"/>
	<path d="M 216.618,41.555 C 222.427,52.165 228.787,63.967 236.064,77.665 C 243.31,91.394 251.015,106.193 259.668,123.01 L 259.668,123.01 C 272.969,121.206 289.512,120.442 310.119,120.717 C 330.789,120.962 354.394,122.155 382.34,124.417 L 382.34,124.417 C 381.362,112.736 379.282,100.354 375.859,86.441 C 372.374,72.529 367.908,57.731 361.977,41.556 L 361.977,41.556 C 328.831,39.66 300.793,38.773 276.333,38.773 C 251.872,38.772 232.363,39.659 216.618,41.555 L 216.618,41.555 z " style="fill:#616161;fill-rule:evenodd" id="path11"/>
	<path d="M 41.447,42.839 C 37.228,48.037 31.816,57.638 24.967,72.1 C 18.027,86.624 10.015,105.214 0.445,129.033 L 0.445,129.033 C 10.015,127.443 22.429,126.404 38.39,125.792 C 54.29,125.15 80.83,125.272 95.353,125.334 C 109.724,125.334 119.355,125.487 124.492,125.792 L 124.492,125.792 C 139.108,100.016 150.145,80.662 158.31,66.536 C 166.321,52.471 171.06,44.491 172.65,42.014 L 172.65,42.014 C 154.855,39.966 135.378,39.079 113.393,39.232 C 91.287,39.353 67.743,40.515 41.447,42.839 L 41.447,42.839 z " style="fill:#616161;fill-rule:evenodd" id="path13"/>
	<path d="M 2.28,129.033 C 4.634,132.182 6.682,135.117 8.303,137.839 C 9.924,140.561 11.116,142.945 12.003,145.238 L 12.003,145.238 C 24.509,143.832 37.748,142.792 52.302,141.997 C 66.795,141.141 84.896,140.682 98.594,140.621 C 112.323,140.529 123.727,140.835 133.756,141.538 L 133.756,141.538 C 140.147,126.648 146.17,113.041 152.285,100.352 C 158.278,87.571 163.628,75.952 169.867,65.617 C 176.104,55.221 182.433,46.507 189.313,38.771 L 189.313,38.771 C 194.511,43.908 199.647,49.962 205.06,57.3 C 210.41,64.547 215.302,73.383 221.265,82.281 C 227.105,91.118 234.29,100.81 240.221,110.044 C 246.123,119.217 251.413,128.023 256.426,136.92 L 256.426,136.92 C 263.185,135.391 275.568,134.535 294.403,134.596 C 313.299,134.534 337.515,135.391 368.458,136.92 L 368.458,136.92 L 380.047,122.549 L 380.047,122.549 C 349.501,120.5 324.735,119.308 304.585,119.308 C 284.467,119.155 269.882,120.195 260.128,122.09 L 260.128,122.09 C 246.98,96.559 235.177,74.881 224.018,55.893 C 212.826,36.936 203.074,21.587 193.93,9.143 L 193.93,9.143 C 187.968,17.827 181.639,27.886 174.485,39.688 C 167.36,51.459 159.961,65.158 151.339,79.498 C 142.625,93.777 133.176,108.667 122.659,124.873 L 122.659,124.873 C 86.548,124.17 59.213,124.17 38.88,124.873 C 18.729,125.547 6.652,126.892 2.28,129.033 L 2.28,129.033 z " style="fill:white;fill-rule:evenodd" id="path15"/>
	<path d="M 0.017,130.225 C 6.285,110.045 12.37,92.8 18.638,77.329 C 24.876,61.919 30.96,49.107 37.228,38.406 L 37.228,38.406 C 60.802,37.794 83.153,37.794 105.81,38.406 C 128.375,38.956 149.839,40.118 171.487,41.892 L 171.487,41.892 C 138.648,41.066 111.986,40.913 90.093,41.434 C 68.323,41.923 52.271,43.085 41.447,44.919 L 41.447,44.919 C 31.479,62.53 23.254,78.063 16.314,92.464 C 9.343,106.773 4.022,119.126 0.017,130.225 L 0.017,130.225 z " style="fill-rule:evenodd;stroke:black;stroke-width:0.036;stroke-miterlimit:10" id="path17"/>
	<path d="M 50.009,34.339 L 51.171,25.594 L 51.171,25.594 C 57.653,24.218 63.279,23.637 68.049,23.851 C 72.819,24.065 76.61,24.952 79.668,26.756 L 79.668,26.756 L 79.086,35.5 L 74.439,27.917 L 74.439,27.917 C 69.547,27.489 65.755,27.336 62.82,27.336 C 59.854,27.336 57.989,27.489 56.98,27.917 L 56.98,27.917 C 54.656,30.058 52.332,32.198 50.009,34.339 L 50.009,34.339 z " style="fill-rule:evenodd;stroke:black;stroke-width:0.036;stroke-miterlimit:10" id="path19"/>
	<path d="M 11.544,145.238 C 42.854,140.255 68.201,137.563 88.871,136.922 C 109.479,136.249 124.278,137.87 134.216,141.539 L 134.216,141.539 C 125.135,141.111 110.672,141.172 90.125,141.845 C 69.424,142.456 43.741,143.587 11.544,145.238 L 11.544,145.238 z " style="fill-rule:evenodd;stroke:black;stroke-width:0.036;stroke-miterlimit:10" id="path21"/>
	<path d="M 136.63,131.387 C 144.947,111.941 153.233,94.39 162.192,77.909 C 171.059,61.429 180.017,46.752 189.527,33.177 L 189.527,33.177 C 200.075,46.233 210.533,60.909 221.479,77.909 C 232.424,94.848 243.28,113.408 254.624,134.292 L 254.624,134.292 C 236.921,108.088 223.008,87.755 212.184,72.1 C 201.36,56.445 194.114,46.416 190.109,41.31 L 190.109,41.31 C 183.046,52.715 175.249,65.648 166.259,80.814 C 157.178,95.95 147.577,112.491 136.63,131.387 L 136.63,131.387 z " style="fill-rule:evenodd;stroke:black;stroke-width:0.036;stroke-miterlimit:10" id="path23"/>
	<path d="M 145.345,89.223 C 155.527,70.816 164.547,54.58 172.65,39.567 C 180.753,24.524 187.571,11.621 193.595,0.032 L 193.595,0.032 C 196.989,4.068 202.523,12.935 210.442,27.336 C 218.362,41.707 228.298,60.787 240.712,85.523 L 240.712,85.523 C 224.507,57.485 212.645,37.702 204.634,25.013 C 196.621,12.446 192.831,7.645 193.013,10.489 L 193.013,10.489 C 188.917,17.95 182.954,28.07 175.005,41.31 C 166.932,54.549 157.239,70.205 145.345,89.223 L 145.345,89.223 z " style="fill-rule:evenodd;stroke:black;stroke-width:0.036;stroke-miterlimit:10" id="path25"/>
	<path d="M 258.293,135.515 C 281.348,133.13 301.588,132.09 319.842,132.274 C 338.034,132.457 353.415,133.863 366.808,136.616 L 366.808,136.616 C 356.075,137.197 342.011,137.349 323.787,137.197 C 305.471,136.982 284.039,136.462 258.293,135.515 L 258.293,135.515 z " style="fill-rule:evenodd;stroke:black;stroke-width:0.036;stroke-miterlimit:10" id="path27"/>
	<path d="M 32.855,271.273 C 34.261,261.702 35.148,251.948 35.637,241.644 C 35.973,231.217 35.301,217.152 35.637,209.692 C 36.004,202.201 36.646,199.846 37.93,197.217 C 39.154,194.557 40.346,194.771 43.036,193.975 C 45.635,193.15 49.182,192.447 53.677,192.111 L 53.677,192.111 C 53.433,204.555 52.974,216.816 52.301,229.597 C 51.598,242.285 50.711,254.975 49.518,268.031 L 49.518,268.031 C 43.985,269.102 38.42,270.172 32.855,271.273 L 32.855,271.273 z " style="fill:white;fill-rule:evenodd" id="path29"/>
	<path d="M 62.025,268.949 C 61.414,252.56 61.016,238.403 61.077,225.897 C 61.016,213.331 61.413,203.119 62.025,194.434 L 62.025,194.434 C 65.297,192.356 68.568,190.918 71.718,189.787 C 74.837,188.595 76.946,187.983 80.982,187.953 C 85.049,187.953 89.88,188.564 95.812,189.787 L 95.812,189.787 C 96.851,201.498 97.463,213.728 97.646,227.304 C 97.769,240.819 97.463,254.976 96.729,270.356 L 96.729,270.356 C 88.535,270.57 81.716,270.57 75.907,270.356 C 70.067,270.142 65.48,269.591 62.025,268.949 L 62.025,268.949 z " style="fill:white;fill-rule:evenodd" id="path31"/>
	<path d="M 115.258,190.246 C 120.15,189.022 124.155,189.604 127.274,192.111 C 130.393,194.526 132.716,196.606 133.756,205.075 C 134.612,213.606 133.359,231.922 132.839,242.561 C 132.319,253.079 131.463,261.182 130.515,267.573 L 130.515,267.573 L 113.392,266.655 L 113.392,266.655 C 113.392,247.424 113.545,231.799 113.851,218.957 C 114.157,206.054 114.585,196.759 115.258,190.246 L 115.258,190.246 z " style="fill:white;fill-rule:evenodd" id="path33"/>
	<path d="M 132.38,263.873 C 133.603,245.803 134.062,231.523 133.756,220.333 C 133.389,209.111 133.328,202.232 130.515,197.218 C 127.61,192.172 123.023,189.849 116.633,190.246 L 116.633,190.246 C 123.176,189.329 127.793,189.909 130.973,192.111 C 134.061,194.282 134.122,196.055 135.162,203.21 C 136.202,210.396 137.364,224.43 136.996,234.703 C 136.509,244.854 135.01,254.455 132.38,263.873 L 132.38,263.873 z " style="fill-rule:evenodd;stroke:black;stroke-width:0.036;stroke-miterlimit:10" id="path35"/>
	<path d="M 128.681,270.355 L 112.017,268.949 L 114.31,200.458 L 114.31,200.458 C 114.524,233.541 114.677,254.976 114.768,266.166 C 114.829,277.113 114.829,277.113 114.768,266.166 L 114.768,266.166 C 119.386,267.542 124.033,268.949 128.681,270.355 L 128.681,270.355 z " style="fill-rule:evenodd;stroke:black;stroke-width:0.036;stroke-miterlimit:10" id="path37"/>
	<polygon points="117.551,225.897 126.816,226.814 127.274,255.985 116.175,255.985 117.551,225.897 " style="fill-rule:evenodd;stroke:black;stroke-width:0.036;stroke-miterlimit:10" id="polygon39"/>
	<path d="M 118.01,218.957 L 118.499,195.811 L 118.499,195.811 C 122.229,195.811 124.614,197.004 125.898,199.052 C 127.121,201.101 125.745,204.464 125.898,208.317 C 125.929,212.078 126.082,216.511 126.357,221.74 L 126.357,221.74 C 123.575,220.822 120.792,219.904 118.01,218.957 L 118.01,218.957 z " style="fill-rule:evenodd;stroke:black;stroke-width:0.036;stroke-miterlimit:10" id="path41"/>
	<path d="M 33.314,268.49 C 34.231,259.531 34.842,249.655 35.148,238.403 C 35.393,226.998 34.017,209.386 35.148,201.375 C 36.249,193.457 38.451,193.089 41.63,191.194 C 44.718,189.298 48.693,188.716 53.677,189.787 L 53.677,189.787 C 47.929,189.909 43.801,191.652 41.172,194.893 C 38.573,198.104 39.184,196.911 37.93,209.233 C 36.647,221.678 35.026,241.002 33.314,268.49 L 33.314,268.49 z " style="fill-rule:evenodd;stroke:black;stroke-width:0.036;stroke-miterlimit:10" id="path43"/>
	<polygon points="37.931,272.189 51.813,270.814 52.761,196.729 49.519,267.573 37.931,272.189 " style="fill-rule:evenodd;stroke:black;stroke-width:0.036;stroke-miterlimit:10" id="polygon45"/>
	<path d="M 47.196,263.414 L 48.572,231.922 L 41.173,231.922 L 41.173,231.922 C 40.898,249.136 40.745,260.388 40.715,266.166 C 40.592,271.885 40.592,271.885 40.715,266.166 L 40.715,266.166 C 42.854,265.249 45.024,264.331 47.196,263.414 L 47.196,263.414 z " style="fill-rule:evenodd;stroke:black;stroke-width:0.036;stroke-miterlimit:10" id="path47"/>
	<path d="M 47.654,226.814 L 48.571,197.675 L 48.571,197.675 C 46.614,198.196 45.116,199.387 43.954,201.374 C 42.701,203.239 41.845,204.952 41.63,209.232 C 41.324,213.512 41.752,219.293 42.578,226.813 L 42.578,226.813 C 44.26,226.814 45.942,226.814 47.654,226.814 L 47.654,226.814 z " style="fill-rule:evenodd;stroke:black;stroke-width:0.036;stroke-miterlimit:10" id="path49"/>
	<path d="M 65.725,188.411 C 69.547,186.393 73.705,185.201 78.2,184.712 C 82.756,184.161 88.534,184.62 92.571,185.629 C 96.454,186.669 99.267,188.289 101.346,190.735 L 101.346,190.735 L 99.97,268.49 L 84.682,268.949 L 97.646,265.249 L 97.646,265.249 C 98.013,246.842 98.166,231.799 98.105,219.415 C 98.013,207.032 97.708,198.012 97.188,191.652 L 97.188,191.652 C 92.173,189.389 87.159,188.045 81.9,187.494 C 76.64,186.944 71.29,187.25 65.725,188.411 L 65.725,188.411 z " style="fill-rule:evenodd;stroke:black;stroke-width:0.036;stroke-miterlimit:10" id="path51"/>
	<path d="M 68.966,193.487 C 72.482,191.408 76.335,190.612 80.524,190.735 C 84.712,190.887 89.146,192.081 93.946,194.434 L 93.946,194.434 L 93.488,222.198 L 68.477,222.657 L 68.477,222.657 C 68.629,212.934 68.782,203.21 68.966,193.487 L 68.966,193.487 z " style="fill-rule:evenodd;stroke:black;stroke-width:0.036;stroke-miterlimit:10" id="path53"/>
	<path d="M 68.966,229.139 L 92.57,228.222 L 92.112,257.391 L 92.112,257.391 C 85.813,258.339 80.799,258.951 76.824,259.226 C 72.88,259.41 70.097,259.256 68.477,258.767 L 68.477,258.767 C 68.629,248.891 68.782,239.015 68.966,229.139 L 68.966,229.139 z " style="fill-rule:evenodd;stroke:black;stroke-width:0.036;stroke-miterlimit:10" id="path55"/>
	<path d="M 59.701,210.182 L 59.243,256.443 L 59.243,256.443 C 60.68,246.782 61.444,238.342 61.536,230.547 C 61.597,222.718 60.985,216.083 59.701,210.182 L 59.701,210.182 z " style="fill-rule:evenodd;stroke:black;stroke-width:0.036;stroke-miterlimit:10" id="path57"/>
	<path d="M 175.891,142.119 C 176.105,132.947 176.105,124.691 175.891,117.108 C 175.646,109.434 173.291,102.492 174.485,96.745 C 175.646,90.905 179.377,85.768 182.832,82.863 C 186.165,79.989 189.987,78.949 194.42,79.622 L 194.42,79.622 C 198.915,82.282 202.064,85.982 204.112,90.721 C 206.07,95.4 205.703,99.344 206.436,107.874 C 207.139,116.497 207.72,127.443 208.3,141.661 L 208.3,141.661 C 197.508,141.813 186.714,141.966 175.891,142.119 L 175.891,142.119 z " style="fill:white;fill-rule:evenodd" id="path59"/>
	<path d="M 175.004,144.779 C 174.331,135.331 173.903,126.648 173.842,118.025 C 173.75,109.402 171.152,100.596 174.423,93.625 C 177.725,86.593 183.688,80.813 193.012,76.167 L 193.012,76.167 C 185.369,81.762 180.385,88 177.725,95.369 C 175.065,102.707 177.725,111.39 177.328,119.768 C 176.899,128.054 176.043,136.279 175.004,144.779 L 175.004,144.779 z " style="fill-rule:evenodd;stroke:black;stroke-width:0.036;stroke-miterlimit:10" id="path61"/>
	<path d="M 204.633,87.786 C 206.467,91.057 207.628,96.714 208.118,105.245 C 208.546,113.776 208.393,124.538 207.537,138.359 L 207.537,138.359 L 181.393,143.618 L 210.441,144.199 L 210.441,144.199 C 212.551,126.678 213.132,113.623 212.183,104.083 C 211.175,94.604 208.698,89.253 204.633,87.786 L 204.633,87.786 z " style="fill-rule:evenodd;stroke:black;stroke-width:0.036;stroke-miterlimit:10" id="path63"/>
	<polygon points="194.756,110.473 195.336,134.873 202.309,133.711 201.728,111.635 194.756,110.473 " style="fill-rule:evenodd;stroke:black;stroke-width:0.036;stroke-miterlimit:10" id="polygon65"/>
	<polygon points="183.718,109.892 183.137,135.454 190.108,134.873 190.108,111.054 183.718,109.892 " style="fill-rule:evenodd;stroke:black;stroke-width:0.036;stroke-miterlimit:10" id="polygon67"/>
	<path d="M 182.556,104.083 C 181.853,102.523 181.853,100.2 182.556,97.112 C 183.26,93.993 184.972,87.633 186.623,85.463 C 188.151,83.2 189.894,82.619 191.851,83.72 L 191.851,83.72 L 190.69,104.083 L 190.69,104.083 C 187.999,104.083 185.277,104.083 182.556,104.083 L 182.556,104.083 z " style="fill-rule:evenodd;stroke:black;stroke-width:0.036;stroke-miterlimit:10" id="path69"/>
	<path d="M 195.917,86.043 C 199.557,87.908 201.728,90.354 202.889,93.626 C 203.929,96.836 203.777,100.628 202.309,105.245 L 202.309,105.245 L 195.336,104.083 L 195.336,104.083 C 195.521,98.09 195.703,92.066 195.917,86.043 L 195.917,86.043 z " style="fill-rule:evenodd;stroke:black;stroke-width:0.036;stroke-miterlimit:10" id="path71"/>
	<path d="M 284.221,268.031 L 281.44,192.57 L 281.44,192.57 C 285.842,190.154 290.123,188.656 294.404,187.953 C 298.684,187.25 302.966,187.83 306.879,188.411 C 310.671,188.962 314.033,189.849 317.093,191.194 L 317.093,191.194 L 317.55,266.166 L 317.55,266.166 C 306.45,266.777 295.351,267.39 284.221,268.031 L 284.221,268.031 z " style="fill:white;fill-rule:evenodd" id="path73"/>
	<path d="M 296.695,191.194 C 294.892,190.612 293.242,190.612 291.621,191.194 C 290.001,191.744 288.41,192.784 286.974,194.434 L 286.974,194.434 L 288.38,221.739 L 297.186,221.281 L 297.186,221.281 C 297.032,211.251 296.88,201.223 296.695,191.194 L 296.695,191.194 z " style="fill-rule:evenodd;stroke:black;stroke-width:0.036;stroke-miterlimit:10" id="path75"/>
	<path d="M 302.262,191.194 C 304.463,190.46 306.237,190.307 307.827,190.735 C 309.354,191.071 310.547,191.988 311.526,193.487 L 311.526,193.487 L 310.119,223.574 L 302.262,222.657 L 302.262,222.657 C 302.262,212.169 302.262,201.682 302.262,191.194 L 302.262,191.194 z " style="fill-rule:evenodd;stroke:black;stroke-width:0.036;stroke-miterlimit:10" id="path77"/>
	<polygon points="287.921,226.814 289.297,258.767 297.645,258.767 296.238,228.222 287.921,226.814 " style="fill-rule:evenodd;stroke:black;stroke-width:0.036;stroke-miterlimit:10" id="polygon79"/>
	<path d="M 300.886,228.222 C 301.1,235.804 301.253,241.737 301.344,246.721 C 301.406,251.581 301.406,255.098 301.344,257.391 L 301.344,257.391 L 309.661,257.391 L 308.284,228.222 L 308.284,228.222 C 305.84,228.222 303.362,228.222 300.886,228.222 L 300.886,228.222 z " style="fill-rule:evenodd;stroke:black;stroke-width:0.036;stroke-miterlimit:10" id="path81"/>
	<path d="M 278.198,188.411 C 280.644,186.24 283.885,184.65 287.921,183.764 C 291.956,182.785 297.094,181.93 302.262,182.847 C 307.367,183.734 312.688,185.66 318.467,188.87 L 318.467,188.87 C 311.128,185.812 304.615,184.467 298.563,184.712 C 292.507,184.926 287.188,186.731 282.357,190.246 L 282.357,190.246 C 281.898,214.003 281.592,229.475 281.44,237.486 C 281.288,245.343 281.288,245.343 281.44,237.486 L 281.44,237.486 C 280.369,221.128 279.3,204.77 278.198,188.411 L 278.198,188.411 z " style="fill-rule:evenodd;stroke:black;stroke-width:0.036;stroke-miterlimit:10" id="path83"/>
	<path d="M 316.603,198.594 C 316.724,219.844 316.724,236.079 316.603,248.126 C 316.418,260.081 316.113,267.176 315.685,269.866 L 315.685,269.866 L 281.44,267.573 L 319.842,272.648 L 319.842,272.648 C 320.027,247.453 319.873,229.138 319.384,216.633 C 318.804,204.22 317.916,198.318 316.603,198.594 L 316.603,198.594 z " style="fill-rule:evenodd;stroke:black;stroke-width:0.036;stroke-miterlimit:10" id="path85"/>
	<path d="M 165.831,281.729 C 164.271,260.631 163.66,242.011 163.996,224.796 C 164.302,207.551 165.494,192.783 167.696,179.421 L 167.696,179.421 C 176.196,174.743 183.565,171.9 189.925,170.646 C 196.254,169.393 199.525,170.401 205.641,172.022 C 211.726,173.52 218.362,176.18 226.036,179.88 L 226.036,179.88 C 227.076,194.893 227.686,210.518 227.871,227.578 C 227.993,244.64 227.686,262.222 226.953,281.269 L 226.953,281.269 C 218.79,283.042 209.922,283.929 199.648,284.052 C 189.313,284.084 178.275,283.351 165.831,281.729 L 165.831,281.729 z " style="fill:white;fill-rule:evenodd" id="path87"/>
	<path d="M 162.59,283.137 C 162.437,268.581 162.437,255.342 162.59,242.837 C 162.712,230.301 162.987,219.201 163.537,208.592 C 164.058,197.921 164.822,188.35 165.831,179.422 L 165.831,179.422 C 170.846,174.927 176.41,171.992 182.984,170.157 C 189.527,168.293 196.62,167.283 204.723,168.781 C 212.765,170.219 221.479,173.613 231.111,178.963 L 231.111,178.963 C 223.344,175.967 215.823,174.071 208.423,172.94 C 200.932,171.747 193.258,171.197 186.684,172.482 C 180.111,173.766 174.24,176.548 169.073,180.829 L 169.073,180.829 C 167.116,193.458 165.465,208.102 164.456,225.257 C 163.415,242.409 162.682,261.427 162.59,283.137 L 162.59,283.137 z " style="fill-rule:evenodd;stroke:black;stroke-width:0.036;stroke-miterlimit:10" id="path89"/>
	<path d="M 173.261,281.271 C 182.464,281.15 191.331,281.15 200.108,281.271 C 208.883,281.302 217.199,281.455 225.546,281.73 L 225.546,281.73 C 227.565,259.654 228.603,241.614 228.787,226.663 C 228.91,211.711 228.145,200.674 226.493,192.846 L 226.493,192.846 C 228.787,202.049 230.285,211.651 231.111,222.475 C 231.783,233.206 231.507,246.324 231.111,256.75 C 230.683,267.115 229.948,275.982 228.787,284.055 L 228.787,284.055 C 215.639,284.207 204.847,284.055 195.459,283.596 C 186.103,283.075 178.856,282.341 173.261,281.271 L 173.261,281.271 z " style="fill-rule:evenodd;stroke:black;stroke-width:0.036;stroke-miterlimit:10" id="path91"/>
	<path d="M 197.537,203.026 C 194.389,203.119 188.61,216.938 187.968,223.971 C 187.325,230.942 191.27,240.94 193.686,244.426 C 196.04,247.697 199.8,247.392 202.002,243.967 C 204.082,240.421 207.231,230.606 206.497,223.726 C 205.702,216.756 200.597,203.088 197.537,203.026 L 197.537,203.026 z " style="fill-rule:evenodd;stroke:black;stroke-width:0.036;stroke-miterlimit:10" id="path93"/>
	<path d="M 175.554,196.086 L 174.637,183.58 L 174.637,183.58 C 176.349,181.623 178.735,180.125 182.036,178.963 C 185.307,177.771 189.282,177.038 194.084,176.639 L 194.084,176.639 L 194.084,195.169 L 194.084,195.169 C 187.906,195.475 181.73,195.78 175.554,196.086 L 175.554,196.086 z " style="fill-rule:evenodd;stroke:black;stroke-width:0.036;stroke-miterlimit:10" id="path95"/>
	<path d="M 197.783,194.251 L 197.783,177.587 L 197.783,177.587 C 203.929,177.342 208.821,177.801 212.582,178.962 C 216.281,180.155 218.758,181.929 220.012,184.526 L 220.012,184.526 L 220.012,195.168 L 220.012,195.168 C 212.611,194.862 205.213,194.558 197.783,194.251 L 197.783,194.251 z " style="fill-rule:evenodd;stroke:black;stroke-width:0.036;stroke-miterlimit:10" id="path97"/>
	<path d="M 14.785,190.246 C 23.622,186.148 32.305,181.073 41.173,174.53 C 50.009,167.956 58.693,160.404 67.56,151.384 L 67.56,151.384 L 100.429,152.301 L 100.429,152.301 C 107.859,156.918 115.809,162.208 124.982,168.507 C 134.094,174.805 143.725,181.746 154.58,189.787 L 154.58,189.787 C 141.279,186.699 128.559,184.191 115.717,182.389 C 102.876,180.401 90.645,178.811 78.2,178.688 C 65.603,178.597 51.844,179.912 41.173,181.93 C 30.471,183.824 21.909,186.639 14.785,190.246 L 14.785,190.246 z " style="fill:#616161;fill-rule:evenodd" id="path99"/>
	<path d="M 153.601,187.219 C 144.183,181.227 135.316,175.325 126.877,169.179 C 118.346,163.002 110.549,156.918 103.027,150.589 L 103.027,150.589 L 64.685,148.265 L 64.685,148.265 C 59.212,154.655 52.271,161.199 43.741,168.017 C 35.118,174.805 25.242,181.746 13.532,188.961 L 13.532,188.961 C 23.255,185.567 32.428,180.95 41.631,174.988 C 50.742,168.994 59.426,161.78 68.018,153.217 L 68.018,153.217 L 100.122,155.816 L 100.122,155.816 C 109.326,161.962 118.437,167.649 128.039,173.245 C 137.518,178.841 153.448,186.79 157.086,188.961 C 160.664,190.98 158.187,189.817 149.534,185.476 L 149.534,185.476 L 153.601,187.219 L 153.601,187.219 z " style="fill-rule:evenodd;stroke:black;stroke-width:0.036;stroke-miterlimit:10" id="path101"/>
	<path d="M 51.813,180.064 C 65.022,176.854 78.292,175.814 92.571,176.823 C 106.85,177.863 121.191,180.828 136.54,186.088 L 136.54,186.088 C 117.766,183 101.683,181.104 87.465,180.065 C 73.216,179.025 61.566,179.025 51.813,180.064 L 51.813,180.064 z " style="fill-rule:evenodd;stroke:black;stroke-width:0.036;stroke-miterlimit:10" id="path103"/>
	<path d="M 15.244,293.502 C 34.324,294.327 52.149,295.092 69.883,295.794 C 87.556,296.438 106.3,297.721 120.334,297.659 C 134.247,297.568 144.856,296.834 152.745,295.336 L 152.745,295.336 L 160.603,288.854 L 160.603,288.854 C 172.038,287.907 183.076,287.294 194.419,287.019 C 205.702,286.683 216.618,286.683 227.747,287.019 L 227.747,287.019 L 230.041,296.253 L 230.041,296.253 C 246.918,296.956 263.308,297.232 280.032,297.201 C 296.789,297.079 314.829,296.528 329.566,295.794 C 344.212,294.969 356.441,293.93 367.083,292.554 L 367.083,292.554 L 368,314.782 L 368,314.782 C 353.568,316.006 335.833,316.892 313.85,317.565 C 291.775,318.176 265.203,318.329 236.982,318.482 C 208.608,318.543 176.961,317.962 145.345,318.023 C 113.577,318.023 70.433,318.726 48.572,318.482 C 26.863,318.145 16.07,317.38 15.733,316.189 L 15.733,316.189 C 13.623,311.602 12.584,307.474 12.492,303.682 C 12.37,299.801 13.287,296.559 15.244,293.502 L 15.244,293.502 z " style="fill:#616161;fill-rule:evenodd" id="path105"/>
	<path d="M 159.685,288.395 C 175.248,286.958 188.519,286.072 199.955,285.614 C 211.36,285.125 220.471,285.125 227.748,285.614 L 227.748,285.614 C 213.377,286.103 201.146,286.959 190.231,287.937 C 179.377,288.884 170.356,290.2 162.926,291.637 L 162.926,291.637 L 162.926,296.253 L 162.926,296.253 C 167.207,295.306 173.994,294.693 183.29,294.419 C 192.584,294.082 204.204,294.082 218.482,294.419 L 218.482,294.419 C 210.227,294.878 201.696,295.489 192.554,296.253 C 183.381,297.018 173.933,297.904 163.842,299.035 L 163.842,299.035 L 163.384,305.058 L 163.384,305.058 C 172.404,303.408 180.078,302.368 186.53,301.818 C 192.982,301.237 197.997,301.237 201.819,301.818 L 201.819,301.818 C 195.336,303.071 189.13,304.233 182.831,305.058 C 176.502,305.854 170.448,306.557 164.302,306.924 L 164.302,306.924 L 164.302,315.24 L 164.302,315.24 C 169.5,314.843 174.821,314.843 180.507,315.24 C 186.133,315.637 192.004,316.371 198.12,317.564 L 198.12,317.564 C 191.698,318.236 185.185,318.695 178.214,318.939 C 171.182,319.154 164.088,319.154 156.444,318.939 L 156.444,318.939 C 158.676,316.309 160.022,312.457 160.603,307.381 C 161.092,302.277 160.786,295.947 159.685,288.395 L 159.685,288.395 z " style="fill-rule:evenodd;stroke:black;stroke-width:0.036;stroke-miterlimit:10" id="path107"/>
	<path d="M 226.34,294.419 L 226.34,318.023 L 204.601,317.565 L 204.601,317.565 C 206.711,316.983 209.218,316.525 212.459,316.189 C 215.578,315.76 219.278,315.485 223.559,315.241 L 223.559,315.241 L 223.559,304.6 L 212.001,303.224 L 223.101,302.735 L 223.101,302.735 C 224.171,299.983 225.24,297.201 226.34,294.419 L 226.34,294.419 z " style="fill-rule:evenodd;stroke:black;stroke-width:0.036;stroke-miterlimit:10" id="path109"/>
	<path d="M 11.085,291.637 C 26.159,292.492 42.396,293.227 60.619,293.96 C 78.812,294.603 102.967,295.611 119.417,295.794 C 135.744,295.917 148.311,295.611 157.82,294.878 L 157.82,294.878 C 155.588,297.049 147.424,298.241 132.84,298.577 C 118.072,298.852 90.675,297.139 70.801,296.742 C 50.926,296.222 32.612,295.947 14.785,295.794 L 14.785,295.794 C 14.449,300.045 14.449,303.867 14.785,307.383 C 15.121,310.9 15.702,313.865 16.651,316.648 L 16.651,316.648 C 42.793,317.78 66.551,318.391 89.33,318.483 C 112.079,318.544 132.442,318.085 151.827,317.107 L 151.827,317.107 L 151.338,319.889 L 151.338,319.889 C 135.193,321.112 116.114,321.571 93.029,321.265 C 69.822,320.898 43.985,319.858 13.867,318.024 L 13.867,318.024 C 12.124,310.93 11.084,305.304 10.626,300.902 C 10.168,296.406 10.321,293.471 11.085,291.637 L 11.085,291.637 z " style="fill-rule:evenodd;stroke:black;stroke-width:0.036;stroke-miterlimit:10" id="path111"/>
	<path d="M 235.147,293.502 C 235.605,295.336 246.52,295.947 268.475,295.336 C 290.611,294.663 322.502,292.89 366.133,289.771 L 366.133,289.771 L 368.917,318.024 L 362.894,293.013 L 362.894,293.013 C 339.839,296.315 318.161,298.057 296.695,298.118 C 275.231,298.18 254.99,296.682 235.147,293.502 L 235.147,293.502 z " style="fill-rule:evenodd;stroke:black;stroke-width:0.036;stroke-miterlimit:10" id="path113"/>
	<path d="M 236.064,314.782 C 246.642,316.801 261.839,317.84 282.814,318.023 C 303.82,318.145 329.199,317.412 360.599,315.699 L 360.599,315.699 C 352.68,318.053 341.032,319.643 324.949,320.346 C 308.713,320.989 279.3,320.714 264.774,319.888 C 250.282,318.879 243.676,316.189 238.846,315.241 C 234.016,314.385 233.128,314.231 236.064,314.782 L 236.064,314.782 z " style="fill:#616161;fill-rule:evenodd;stroke:black;stroke-width:0.036;stroke-miterlimit:10" id="path115"/>
	<path d="M 16.191,293.96 C 14.938,276.012 14.051,261.091 13.409,248.126 C 12.675,235.162 12.369,233.756 12.492,217.122 C 12.615,200.306 13.226,177.893 14.326,148.601 L 14.326,148.601 C 10.412,167.405 8.333,186.73 7.844,207.399 C 7.355,228.099 10.076,257.054 11.544,271.73 C 12.889,286.225 14.479,293.471 16.191,293.96 L 16.191,293.96 z " style="fill-rule:evenodd;stroke:black;stroke-width:0.036;stroke-miterlimit:10" id="path117"/>
	<path d="M 364.759,140.712 C 366.746,146.981 367.939,158.171 368.458,174.988 C 368.824,191.897 368.52,221.83 367.541,240.726 C 366.623,259.47 365.034,274.421 362.895,286.53 L 362.895,286.53 C 366.747,268.674 369.223,252.836 370.783,237.945 C 372.22,223.085 372.647,214.371 371.7,198.134 C 370.69,181.777 368.337,162.911 364.759,140.712 L 364.759,140.712 z " style="fill-rule:evenodd;stroke:black;stroke-width:0.036;stroke-miterlimit:10" id="path119"/>
	<path d="M 124.492,125.333 C 105.015,122.581 87.74,121.083 71.718,120.716 C 55.574,120.258 41.111,121.572 29.156,123.009 C 17.201,124.354 8.058,126.403 0.904,129.032 L 0.904,129.032 L 11.086,142.913 L 6.009,129.98 L 6.009,129.98 C 27.566,126.77 45.85,124.843 62.025,123.957 C 78.169,123.131 91.195,124.538 101.804,124.874 C 112.292,125.088 119.661,125.241 124.492,125.333 L 124.492,125.333 z " style="fill-rule:evenodd;stroke:black;stroke-width:0.036;stroke-miterlimit:10" id="path121"/>
	<path d="M 217.075,40.637 C 243.372,37.427 268.321,35.561 293.577,34.92 C 318.742,34.247 342.714,34.828 366.807,36.662 L 366.807,36.662 C 372.28,57.485 376.195,75.219 379.006,90.69 C 381.728,106.1 383.042,118.422 383.073,128.482 L 383.073,128.482 C 378.671,106.406 374.45,88.702 370.292,74.423 C 366.104,60.144 362.037,50.115 358.093,43.633 L 358.093,43.633 C 355.188,41.737 342.376,40.545 318.71,40.055 C 294.861,39.506 261.655,39.781 217.075,40.637 L 217.075,40.637 z " style="fill-rule:evenodd;stroke:black;stroke-width:0.036;stroke-miterlimit:10" id="path123"/>
	<path d="M 258.751,122.428 C 265.691,120.012 275.109,118.514 287.463,117.811 C 299.755,117.078 316.724,117.353 332.348,118.27 C 347.973,119.096 363.75,120.716 380.505,123.009 L 380.505,123.009 L 370.324,134.138 L 374.94,125.332 L 374.94,125.332 C 363.443,123.742 351.794,122.703 339.289,121.969 C 326.691,121.235 313.971,120.929 300.427,121.052 C 286.882,121.114 273.184,121.572 258.751,122.428 L 258.751,122.428 z " style="fill-rule:evenodd;stroke:black;stroke-width:0.036;stroke-miterlimit:10" id="path125"/>
</g>
<metadata><rdf:RDF><cc:Work><dc:format>image/svg+xml</dc:format><dc:type rdf:resource="http://purl.org/dc/dcmitype/StillImage"/><cc:license rdf:resource="http://creativecommons.org/licenses/publicdomain/"/><dc:publisher><cc:Agent rdf:about="http://openclipart.org/"><dc:title>Open Clip Art Library</dc:title></cc:Agent></dc:publisher><dc:title>Small House</dc:title><dc:date>2006-10-12T17:55:51</dc:date><dc:description>To fulfill a request on the wiki page.</dc:description><dc:source>http://openclipart.org/detail/545/small-house-by-gerald_g</dc:source><dc:creator><cc:Agent><dc:title>Gerald_G</dc:title></cc:Agent></dc:creator><dc:subject><rdf:Bag><rdf:li>building</rdf:li><rdf:li>house</rdf:li><rdf:li>real estate</rdf:li></rdf:Bag></dc:subject></cc:Work><cc:License rdf:about="http://creativecommons.org/licenses/publicdomain/"><cc:permits rdf:resource="http://creativecommons.org/ns#Reproduction"/><cc:permits rdf:resource="http://creativecommons.org/ns#Distribution"/><cc:permits rdf:resource="http://creativecommons.org/ns#DerivativeWorks"/></cc:License></rdf:RDF></metadata></svg>
